<svg width="44" height="44" viewBox="0 0 44 44" fill="none" xmlns="http://www.w3.org/2000/svg">
<path d="M22.0001 10C23.0771 9.99994 24.1132 10.3764 24.8961 11.0521C25.6789 11.7278 26.149 12.6515 26.2099 13.6338L26.2164 13.8519H33.0273C33.2738 13.8519 33.5111 13.9375 33.6913 14.0912C33.8714 14.245 33.9809 14.4555 33.9977 14.6802C34.0145 14.9048 33.9374 15.127 33.7818 15.3017C33.6262 15.4764 33.4039 15.5906 33.1596 15.6213L33.0273 15.6296H31.9947L30.3341 31.0607C30.2509 31.8301 29.8711 32.5473 29.2625 33.0844C28.6539 33.6215 27.8561 33.9435 27.0117 33.9929L26.7833 34H17.217C16.3704 34 15.5515 33.7249 14.9064 33.2241C14.2614 32.7232 13.8324 32.0291 13.696 31.2658L13.6662 31.0596L12.0043 15.6296H10.973C10.7379 15.6296 10.5107 15.5518 10.3335 15.4106C10.1563 15.2695 10.0411 15.0744 10.0091 14.8616L10 14.7407C10 14.5259 10.0852 14.3184 10.2397 14.1565C10.3942 13.9946 10.6077 13.8894 10.8407 13.8601L10.973 13.8519H17.7839C17.7839 12.8303 18.2281 11.8505 19.0188 11.1282C19.8095 10.4058 20.8819 10 22.0001 10ZM30.0396 15.6296H13.9594L15.6031 30.8853C15.6395 31.2257 15.8037 31.5441 16.0678 31.7865C16.332 32.0289 16.6798 32.1803 17.0522 32.2151L17.217 32.2222H26.7833C27.5617 32.2222 28.2221 31.7185 28.3726 31.0347L28.3985 30.8853L30.0383 15.6296H30.0396ZM24.2704 18.8889C24.5056 18.8889 24.7327 18.9667 24.9099 19.1079C25.0871 19.2491 25.2024 19.4441 25.2344 19.6569L25.2434 19.7778V28.0741C25.2434 28.2993 25.1497 28.5161 24.9814 28.6806C24.8131 28.8452 24.5827 28.9453 24.3368 28.9606C24.0908 28.976 23.8477 28.9055 23.6564 28.7633C23.4652 28.6212 23.3401 28.4181 23.3065 28.195L23.2975 28.0741V19.7778C23.2975 19.542 23.4 19.3159 23.5824 19.1492C23.7649 18.9825 24.0124 18.8889 24.2704 18.8889ZM19.7298 18.8889C19.965 18.8889 20.1921 18.9667 20.3693 19.1079C20.5465 19.2491 20.6618 19.4441 20.6938 19.6569L20.7028 19.7778V28.0741C20.7028 28.2993 20.6091 28.5161 20.4408 28.6806C20.2725 28.8452 20.0421 28.9453 19.7962 28.9606C19.5502 28.976 19.3071 28.9055 19.1158 28.7633C18.9246 28.6212 18.7995 28.4181 18.7659 28.195L18.7569 28.0741V19.7778C18.7569 19.542 18.8594 19.3159 19.0418 19.1492C19.2243 18.9825 19.4718 18.8889 19.7298 18.8889ZM22.0001 11.7778C21.4304 11.7778 20.8815 11.9735 20.4623 12.3261C20.0432 12.6787 19.7845 13.1624 19.7376 13.6812L19.7298 13.8519H24.2704C24.2704 13.3018 24.0313 12.7742 23.6055 12.3853C23.1797 11.9963 22.6023 11.7778 22.0001 11.7778Z" fill="#272727"/>
<path d="M0 0V-1H-1V0H0ZM44 0H45V-1H44V0ZM44 44V45H45V44H44ZM0 44H-1V45H0V44ZM0 1H44V-1H0V1ZM43 0V44H45V0H43ZM44 43H0V45H44V43ZM1 44V0H-1V44H1Z" fill="#272727"/>
</svg>
