<svg width="44" height="44" viewBox="0 0 44 44" fill="none" xmlns="http://www.w3.org/2000/svg">
<path d="M30.4539 16.1228C30.9075 15.6599 31.1571 15.0452 31.1571 14.3912C31.1571 13.7373 30.9075 13.1226 30.4539 12.6597L28.5507 10.7176C28.0971 10.2547 27.4947 10 26.8539 10C26.2131 10 25.6107 10.2547 25.1583 10.7164L12.3999 23.6954V29.1018H17.6955L30.4539 16.1228ZM26.8539 12.4491L28.7583 14.39L26.8503 16.3297L24.9471 14.3888L26.8539 12.4491ZM14.7999 26.6527V24.7118L23.2479 16.1179L25.1511 18.06L16.7043 26.6527H14.7999ZM12.3999 31.5509H31.5999V34H12.3999V31.5509Z" fill="#272727"/>
<path d="M0 0V-1H-1V0H0ZM44 0H45V-1H44V0ZM44 44V45H45V44H44ZM0 44H-1V45H0V44ZM0 1H44V-1H0V1ZM43 0V44H45V0H43ZM44 43H0V45H44V43ZM1 44V0H-1V44H1Z" fill="#272727"/>
</svg>
